<?xml version="1.0" ?>
<!DOCTYPE svg  PUBLIC '-//W3C//DTD SVG 1.1//EN'  'http://www.w3.org/Graphics/SVG/1.1/DTD/svg11.dtd'>
<!-- Uploaded to: SVG Repo, www.svgrepo.com, Generator: SVG Repo Mixer Tools -->
<svg fill="#000000" width="800px" height="800px" viewBox="0 0 846.66 846.66" style="shape-rendering:geometricPrecision; text-rendering:geometricPrecision; image-rendering:optimizeQuality; fill-rule:evenodd; clip-rule:evenodd" version="1.1" xml:space="preserve" xmlns="http://www.w3.org/2000/svg" xmlns:xlink="http://www.w3.org/1999/xlink">
<defs>
<style type="text/css">
   <![CDATA[
    .fil0 {fill:black;fill-rule:nonzero}
   ]]>
  </style>
</defs>
<g id="Layer_x0020_1">
<path class="fil0" d="M79.25 105.11l688.16 0c39.11,0 71.23,32.12 71.23,71.23l0 493.98c0,39.11 -32.13,71.23 -71.23,71.23l-688.16 0c-39.1,0 -71.22,-32.12 -71.22,-71.23l0 -493.98c0,-39.11 32.12,-71.23 71.22,-71.23zm-29.7 115.78l747.56 0 0 -44.55c0,-16.41 -13.3,-29.7 -29.7,-29.7l-688.16 0c-16.4,0 -29.7,13.29 -29.7,29.7l0 44.55zm747.56 70.24l-747.56 0 0 379.19c0,16.41 13.3,29.7 29.7,29.7l688.16 0c16.4,0 29.7,-13.29 29.7,-29.7l0 -379.19zm-248.58 188.85l174.42 0c11.47,0 20.77,9.3 20.77,20.77l0 126.66c0,11.47 -9.3,20.76 -20.77,20.76l-174.42 0c-11.46,0 -20.76,-9.29 -20.76,-20.76l0 -126.66c0,-11.47 9.3,-20.77 20.76,-20.77zm153.66 41.53l-132.89 0 0 85.14 132.89 0 0 -85.14zm-584.11 -51.17c-27.31,0 -27.31,-41.52 0,-41.52l214.82 0c27.31,0 27.31,41.52 0,41.52l-214.82 0zm0 -78.49c-27.31,0 -27.31,-41.53 0,-41.53l214.82 0c27.31,0 27.31,41.53 0,41.53l-214.82 0z"/>
</g>
</svg>