<?xml version="1.0" encoding="iso-8859-1"?>
<!-- Uploaded to: SVG Repo, www.svgrepo.com, Generator: SVG Repo Mixer Tools -->
<!DOCTYPE svg PUBLIC "-//W3C//DTD SVG 1.1//EN" "http://www.w3.org/Graphics/SVG/1.1/DTD/svg11.dtd">
<svg fill="#000000" version="1.1" id="Capa_1" xmlns="http://www.w3.org/2000/svg" xmlns:xlink="http://www.w3.org/1999/xlink" 
	 width="800px" height="800px" viewBox="0 0 56.665 56.665"
	 xml:space="preserve">
<g>
	<g>
		<path d="M1,51.708h39c0.553,0,1-0.448,1-1c0-0.553-0.447-1-1-1H2v-40c0-0.552-0.447-1-1-1c-0.553,0-1,0.448-1,1v41
			C0,51.259,0.447,51.708,1,51.708z"/>
		<path d="M6.5,46.708H14c0.553,0,1-0.448,1-1v-28.25c0-0.552-0.447-1-1-1H6.5c-0.553,0-1,0.448-1,1v28.25
			C5.5,46.259,5.947,46.708,6.5,46.708z M7.5,18.458H13v26.25H7.5V18.458z"/>
		<path d="M16.5,46.708H24c0.553,0,1-0.448,1-1v-22.25c0-0.552-0.447-1-1-1h-7.5c-0.553,0-1,0.448-1,1v22.25
			C15.5,46.259,15.947,46.708,16.5,46.708z M17.5,24.458H23v20.25h-5.5V24.458z"/>
		<path d="M26.5,46.708H34c0.553,0,1-0.448,1-1v-15.5c0-0.553-0.447-1-1-1h-7.5c-0.553,0-1,0.447-1,1v15.5
			C25.5,46.259,25.947,46.708,26.5,46.708z M27.5,31.208H33v13.5h-5.5V31.208z"/>
		<path d="M45,36.208c0-0.553-0.447-1-1-1h-7.5c-0.553,0-1,0.447-1,1v9.5c0,0.552,0.447,1,1,1H44c0.553,0,1-0.448,1-1V36.208z
			 M43,44.708h-5.5v-7.5H43V44.708z"/>
		<path d="M30.25,25.708c2.619,0,4.75-2.131,4.75-4.75c0-1.157-0.432-2.204-1.122-3.029l3.841-4.217
			c0.465,0.294,0.979,0.516,1.531,0.635v8.221c-2.141,0.461-3.75,2.364-3.75,4.64c0,2.619,2.131,4.75,4.75,4.75S45,29.827,45,27.208
			c0-0.607-0.125-1.183-0.333-1.717l4.226-2.15c0.822,0.687,1.868,1.118,3.022,1.118c2.619,0,4.75-2.131,4.75-4.75
			s-2.131-4.75-4.75-4.75s-4.75,2.131-4.75,4.75c0,0.728,0.178,1.41,0.472,2.026l-4.078,2.076c-0.627-0.611-1.422-1.051-2.309-1.242
			v-8.221c2.141-0.461,3.75-2.364,3.75-4.64c0-2.619-2.131-4.75-4.75-4.75s-4.75,2.131-4.75,4.75c0,0.963,0.292,1.857,0.787,2.607
			L32.3,16.691c-0.623-0.301-1.313-0.484-2.05-0.484c-2.619,0-4.75,2.131-4.75,4.75S27.631,25.708,30.25,25.708z M51.915,16.958
			c1.517,0,2.75,1.233,2.75,2.75s-1.233,2.75-2.75,2.75s-2.75-1.233-2.75-2.75S50.398,16.958,51.915,16.958z M43,27.208
			c0,1.518-1.232,2.75-2.75,2.75s-2.75-1.232-2.75-2.75c0-1.517,1.232-2.75,2.75-2.75S43,25.69,43,27.208z M40.25,6.958
			c1.518,0,2.75,1.233,2.75,2.75s-1.232,2.75-2.75,2.75s-2.75-1.233-2.75-2.75S38.732,6.958,40.25,6.958z M30.25,18.208
			c1.518,0,2.75,1.233,2.75,2.75s-1.232,2.75-2.75,2.75c-1.517,0-2.75-1.233-2.75-2.75S28.733,18.208,30.25,18.208z"/>
	</g>
</g>
</svg>